<svg xmlns="http://www.w3.org/2000/svg" xmlns:xlink="http://www.w3.org/1999/xlink" version="1.1" width="1000"
     height="1000" viewBox="0 0 1000 1000" xml:space="preserve">
<desc>Created with Fabric.js 3.5.0</desc>
    <defs>
</defs>
    <g transform="matrix(33.7785 -33.8871 33.8871 33.7785 500.0002 500)" id="756427">
<g style="" vector-effect="non-scaling-stroke">
		<g transform="matrix(1 0 0 1 0 0)">
<rect style="stroke: none; stroke-width: 1; stroke-dasharray: none; stroke-linecap: butt; stroke-dashoffset: 0; stroke-linejoin: miter; stroke-miterlimit: 4; is-custom-font: none; font-file-url: none; fill: none; fill-rule: nonzero; opacity: 1;"
      x="-9.5" y="-9.5" rx="0" ry="0" width="19" height="19"/>
</g>
    <g transform="matrix(1 0 0 1 0 0.0004)">
<path style="stroke: none; stroke-width: 1; stroke-dasharray: none; stroke-linecap: butt; stroke-dashoffset: 0; stroke-linejoin: miter; stroke-miterlimit: 4; is-custom-font: none; font-file-url: none; fill: rgb(32,140,96); fill-rule: nonzero; opacity: 1;"
      transform=" translate(-7.5, -7.5004)"
      d="M 2.64 1.27 L 7.5 6.13 l 4.84 -4.84 C 12.5114 1.1076 12.7497 1.0029 13 1 c 0.5523 0 1 0.4477 1 1 c 0.0047 0.2478 -0.093 0.4866 -0.27 0.66 L 8.84 7.5 l 4.89 4.89 c 0.1648 0.1612 0.2615 0.3796 0.27 0.61 c 0 0.5523 -0.4477 1 -1 1 c -0.2577 0.0107 -0.508 -0.0873 -0.69 -0.27 L 7.5 8.87 l -4.85 4.85 C 2.4793 13.8963 2.2453 13.9971 2 14 c -0.5523 0 -1 -0.4477 -1 -1 c -0.0047 -0.2478 0.093 -0.4866 0.27 -0.66 L 6.16 7.5 L 1.27 2.61 C 1.1052 2.4488 1.0085 2.2304 1 2 c 0 -0.5523 0.4477 -1 1 -1 C 2.2404 1.0029 2.4701 1.0998 2.64 1.27 z"
      stroke-linecap="round"/>
</g>
</g>
</g>
</svg>